<?xml version="1.0" encoding="iso-8859-1"?>
<!-- Generator: Adobe Illustrator 19.0.0, SVG Export Plug-In . SVG Version: 6.00 Build 0)  -->
<svg version="1.1" id="Layer_1" xmlns="http://www.w3.org/2000/svg" xmlns:xlink="http://www.w3.org/1999/xlink" x="0px" y="0px"
	 viewBox="0 0 500.8 500.8" style="enable-background:new 0 0 500.8 500.8;" xml:space="preserve">
<circle style="fill:#F15249;" cx="250.4" cy="253.6" r="246.4"/>
<g>
	<path style="fill:#C93131;" d="M294.4,58.4L164.8,188c-7.2,7.2-7.2,19.2,0,26.4L400,449.6c59.2-44.8,96.8-116,96.8-196
		c0-6.4,0-13.6-0.8-20L320.8,58.4C313.6,51.2,301.6,51.2,294.4,58.4z"/>
	<path style="fill:#C93131;" d="M492,301.6l-20.8-19.2h-388l-42.4,40.8l176,175.2c10.4,1.6,24,2.4,35.2,2.4
		C372,500.8,470.4,416,492,301.6z"/>
</g>
<rect x="73.6" y="266.4" style="fill:#FFFFFF;" width="280" height="64"/>
<polyline style="fill:#C4C4C4;" points="353.6,330.4 353.6,266.4 257.6,266.4 "/>
<path style="fill:#FFC114;" d="M444.8,266.4h-91.2v64h91.2c10.4,0,20.8-10.4,20.8-20.8v-28C465.6,271.2,455.2,266.4,444.8,266.4z"/>
<path style="fill:#FF8A15;" d="M447.2,329.6c10.4,0,18.4-9.6,18.4-20v-28c0-10.4-10.4-15.2-20.8-15.2h-91.2"/>
<path style="fill:#FFC114;" d="M56,266.4c-10.4,0-22.4,7.2-22.4,17.6v25.6c0,10.4,12,20.8,22.4,20.8h17.6v-64H56z"/>
<g>
	<path style="fill:#C4C4C3;" d="M73.6,237.6c-40,0-67.2-30.4-67.2-67.2s27.2-67.2,67.2-67.2v32c-24,0-35.2,16-35.2,35.2
		c0,19.2,11.2,35.2,35.2,35.2V237.6z"/>
	<path style="fill:#C4C4C3;" d="M73.6,135.2v-32c16,0,35.2-16,35.2-35.2S89.6,32,73.6,32V0c32,0,67.2,30.4,67.2,67.2
		C140.8,104.8,105.6,135.2,73.6,135.2z"/>
</g>
<g>
	<path style="fill:#3AC2F2;" d="M206.4,229.6c-7.2,7.2-19.2,7.2-26.4,0l-15.2-15.2c-7.2-7.2-7.2-19.2,0-26.4L294.4,58.4
		c7.2-7.2,19.2-7.2,26.4,0L336,73.6c7.2,7.2,7.2,19.2,0,26.4L206.4,229.6z"/>
	<path style="fill:#3AC2F2;" d="M294.4,229.6c7.2,7.2,19.2,7.2,26.4,0l15.2-15.2c7.2-7.2,7.2-19.2,0-26.4L206.4,58.4
		c-7.2-7.2-19.2-7.2-26.4,0l-15.2,15.2c-7.2,7.2-7.2,19.2,0,26.4L294.4,229.6z"/>
</g>
<g>
</g>
<g>
</g>
<g>
</g>
<g>
</g>
<g>
</g>
<g>
</g>
<g>
</g>
<g>
</g>
<g>
</g>
<g>
</g>
<g>
</g>
<g>
</g>
<g>
</g>
<g>
</g>
<g>
</g>
</svg>
